<svg data-name="Layer 1" xmlns="http://www.w3.org/2000/svg" viewBox="0 0 100 100"><path d="M30.55 34.08h14.06v10.78H30.55z"/><path d="M75 20H25a5 5 0 00-5 5v50a5 5 0 005 5h50a5 5 0 005-5V25a5 5 0 00-5-5zM27 32.32a1.76 1.76 0 011.76-1.76h17.61a1.75 1.75 0 011.75 1.76v14.3a1.75 1.75 0 01-1.75 1.76H28.79A1.76 1.76 0 0127 46.62zm44.21 37.12H28.79a1.76 1.76 0 010-3.52h42.42a1.76 1.76 0 110 3.52zm0-7H28.79a1.76 1.76 0 110-3.52h42.42a1.76 1.76 0 110 3.52zm0-7H28.79a1.76 1.76 0 010-3.52h42.42a1.76 1.76 0 110 3.52zm0-7H53.4a1.76 1.76 0 110-3.52h17.81a1.76 1.76 0 110 3.52zm0-7.15H53.4a1.76 1.76 0 110-3.52h17.81a1.76 1.76 0 110 3.52zm0-7H53.4a1.76 1.76 0 110-3.52h17.81a1.76 1.76 0 110 3.52z"/></svg>