<svg xmlns="http://www.w3.org/2000/svg" viewBox="0 0 100 100">
  <title>comments-icon</title>
  <g>
    <path d="M50.15,27c-22.39-.84-38.36,10.13-37.63,24.14C12.52,60.56,25.31,69,38,72c0,0-.06,3.65-4.4,9.57,9.52-1.75,16.46-8.32,16.46-8.32l3.22-.16c16.45-1,29.32-10.19,29.32-21.34C82.62,39.88,68.08,27,50.15,27ZM32.59,55.17a5.26,5.26,0,1,1,5.27-5.26A5.26,5.26,0,0,1,32.59,55.17Zm14.42,0a5.26,5.26,0,1,1,5.27-5.26A5.26,5.26,0,0,1,47,55.17Zm14.42,0a5.26,5.26,0,1,1,5.27-5.26A5.26,5.26,0,0,1,61.44,55.17Z" />
    <path d="M61.57,18.51c-9.61-.36-17.74,2-23.12,6a60.35,60.35,0,0,1,13.52-1c16.62,0,30.45,10.6,33.29,21.62a12.36,12.36,0,0,0,2.24-7C87.5,28.76,75.89,18.51,61.57,18.51Z" />
  </g>
</svg>
