<svg id="twitter-icon" xmlns="http://www.w3.org/2000/svg" viewBox="0 0 100 100">
  <title>twitter-icon</title>
  <path d="M87.5,26.74a30.77,30.77,0,0,1-8.84,2.42,15.43,15.43,0,0,0,6.77-8.51,30.8,30.8,0,0,1-9.77,3.73,15.4,15.4,0,0,0-26.22,14A43.68,43.68,0,0,1,17.72,22.34a15.4,15.4,0,0,0,4.76,20.54,15.32,15.32,0,0,1-7-1.92c0,.06,0,.13,0,.19A15.4,15.4,0,0,0,27.86,56.24a15.4,15.4,0,0,1-6.95.26A15.4,15.4,0,0,0,35.28,67.19,31.07,31.07,0,0,1,12.5,73.56a43.55,43.55,0,0,0,23.59,6.91c28.3,0,43.78-23.45,43.78-43.78q0-1,0-2A31.26,31.26,0,0,0,87.5,26.74Z"/>
</svg>
