<svg xmlns="http://www.w3.org/2000/svg" viewBox="0 0 512 512"><path d="M256 0C114.64 0 0 114.64 0 256s114.64 256 256 256 256-114.64 256-256S397.36 0 256 0zm116.89 199.6q.17 3.78.16 7.6c0 77.64-59.1 167.18-167.18 167.18A166.35 166.35 0 01115.8 348a118.69 118.69 0 0087-24.34 58.8 58.8 0 01-54.89-40.81 58.63 58.63 0 0026.54-1 58.77 58.77 0 01-47.15-57.59v-.75a58.33 58.33 0 0026.62 7.34 58.82 58.82 0 01-18.2-78.44 166.84 166.84 0 00121.12 61.39A58.79 58.79 0 01357 160.19a117.75 117.75 0 0037.31-14.26 59 59 0 01-25.84 32.5 117.49 117.49 0 0033.75-9.26 119.45 119.45 0 01-29.33 30.43z"/></svg>