<svg xmlns="http://www.w3.org/2000/svg" viewBox="0 0 512 512"><path d="M256 0C114.64 0 0 114.64 0 256s114.64 256 256 256 256-114.64 256-256S397.36 0 256 0zm-81.59 224.94q-3 3.13-9 3.58l-18.51 77.53h-21l-16.5-41.69-15.66 41.69H72.45l-19-77.53q-6.18-.33-9.32-3.47a10.73 10.73 0 01-3.13-7.89 10.46 10.46 0 013.47-8.11q3.48-3.13 11.64-3.14h21.08c5.45 0 9.32 1.05 11.64 3.14a10.56 10.56 0 013.47 8.22 11.07 11.07 0 01-4 8.6q-3 2.65-11.69 2.65l8.61 35.84 14-36.72h20.07l14.12 36.72 8.82-35.84q-8.37 0-11-1.66a10.89 10.89 0 01-5.3-9.7 10.44 10.44 0 013.48-8.11q3.47-3.13 11.63-3.14h21.29q8.16 0 11.63 3.14a11.33 11.33 0 01.44 15.89zm146.84 0q-3 3.13-9 3.58l-18.53 77.53h-21l-16.54-41.69-15.67 41.69h-21.22l-19-77.53q-6.18-.33-9.32-3.47a10.69 10.69 0 01-3.14-7.89 10.46 10.46 0 013.47-8.11c2.32-2.09 6.19-3.14 11.64-3.14H224q8.16 0 11.64 3.14a10.59 10.59 0 013.47 8.22 11.07 11.07 0 01-4 8.6q-3 2.65-11.69 2.65l8.6 35.84 14-36.72h20.07l14.12 36.72 8.82-35.84q-8.39 0-11-1.66a10.88 10.88 0 01-5.29-9.7 10.46 10.46 0 013.47-8.11q3.48-3.13 11.64-3.14h21.28q8.16 0 11.64 3.14a11.35 11.35 0 01.44 15.89zm137.85 3.58l-18.53 77.53h-20.95l-16.55-41.69-15.66 41.69h-21.28l-19-77.53q-6.18-.33-9.32-3.47a10.7 10.7 0 01-3.15-7.89 10.44 10.44 0 013.48-8.11q3.46-3.13 11.63-3.14h21.07q8.16 0 11.63 3.14a10.57 10.57 0 013.48 8.22 11.1 11.1 0 01-4 8.6q-3 2.65-11.69 2.65l8.6 35.84 14-36.72H413l14.11 36.72 8.83-35.84q-8.38 0-11-1.66a10.88 10.88 0 01-5.29-9.7 10.43 10.43 0 013.47-8.11q3.48-3.13 11.63-3.14H456q8.16 0 11.64 3.14a11.35 11.35 0 01.44 15.89q-3.08 3.14-8.98 3.58z"/></svg>