<svg xmlns="http://www.w3.org/2000/svg" viewBox="0 0 135 29.52">
  <title>fan-discussion-logo</title>
  <g>
    <path d="M40.37,0H2A2,2,0,0,0,0,2V20.6a2,2,0,0,0,2,2H6.69v6.92l6.92-6.92H40.37a2,2,0,0,0,2-2V2A2,2,0,0,0,40.37,0ZM14.11,7.83H9.91a.85.85,0,0,0-.85.85v2.63l1.14-1.13h3.68v2.25H9.06V17H6.82V8.63a3.06,3.06,0,0,1,3-3h4.91Zm11,9.18H22.87V13.58h-4l.68-2.25h3.3V8.68A.84.84,0,0,0,22,7.83H18.89a.85.85,0,0,0-.85.85V17H15.81V8.63a3.06,3.06,0,0,1,3-3h3.22a3.06,3.06,0,0,1,3,3Zm10.42-.63V17H33.29L29,9.9V17H26.74V5.58H29l4.32,7.11V5.58h2.25Z" fill="#fff"/>
    <g opacity="0.5">
      <path d="M55.52,8.63V14a3.06,3.06,0,0,1-3,3H46.74V5.58h5.73A3.06,3.06,0,0,1,55.52,8.63Zm-2.25.05a.84.84,0,0,0-.85-.85H49v5.83l-1.1,1.12h4.54a.85.85,0,0,0,.85-.85Z" fill="#fff"/>
      <path d="M57.13,17V5.58h2.24V17Z" fill="#fff"/>
      <path d="M70.29,14a3.06,3.06,0,0,1-3,3H61l.68-2.24h5.54a.85.85,0,0,0,.85-.85v-.66a.84.84,0,0,0-.85-.85H64a3.06,3.06,0,0,1-3-3V8.63a3.06,3.06,0,0,1,3-3h5.42l-.68,2.25H64.06a.85.85,0,0,0-.85.85v.64a.85.85,0,0,0,.85.85h3.18a3.06,3.06,0,0,1,3,3Z" fill="#fff"/>
      <path d="M79.29,14.78V17H74.53a3.06,3.06,0,0,1-3-3V8.63a3.06,3.06,0,0,1,3-3h4.76l-.68,2.25h-4a.85.85,0,0,0-.85.85v5.25a.86.86,0,0,0,.85.85Z" fill="#fff"/>
      <path d="M89.12,14a3.06,3.06,0,0,1-3,3H83.7a3.06,3.06,0,0,1-3-3V5.58h2.24v8.35a.86.86,0,0,0,.85.85H86a.85.85,0,0,0,.85-.85V5.58h2.25Z" fill="#fff"/>
      <path d="M100.05,14a3.06,3.06,0,0,1-3,3H90.74l.68-2.24H97a.85.85,0,0,0,.85-.85v-.66a.84.84,0,0,0-.85-.85H93.79a3.06,3.06,0,0,1-3-3V8.63a3.06,3.06,0,0,1,3-3h5.42l-.68,2.25H93.82a.85.85,0,0,0-.85.85v.64a.85.85,0,0,0,.85.85H97a3.06,3.06,0,0,1,3,3Z" fill="#fff"/>
      <path d="M110.56,14a3.06,3.06,0,0,1-3,3h-6.27l.68-2.24h5.54a.85.85,0,0,0,.85-.85v-.66a.84.84,0,0,0-.85-.85h-3.17a3.06,3.06,0,0,1-3-3V8.63a3.06,3.06,0,0,1,3-3h5.42L109,7.83h-4.71a.85.85,0,0,0-.85.85v.64a.85.85,0,0,0,.85.85h3.19a3.06,3.06,0,0,1,3,3Z" fill="#fff"/>
      <path d="M111.75,17V5.58H114V17Z" fill="#fff"/>
      <path d="M124.58,8.63V14a3.06,3.06,0,0,1-3,3h-2.88a3.06,3.06,0,0,1-3-3V8.63a3.06,3.06,0,0,1,3-3h2.88A3.06,3.06,0,0,1,124.58,8.63Zm-2.25.05a.84.84,0,0,0-.85-.85h-2.79a.85.85,0,0,0-.85.85v5.25a.86.86,0,0,0,.85.85h2.79a.85.85,0,0,0,.85-.85Z" fill="#fff"/>
      <path d="M135,17h-2.25L128.43,9.9V17h-2.24V5.58h2.24l4.32,7.11V5.58H135V17Z" fill="#fff"/>
    </g>
  </g>
</svg>
